<?xml version="1.0" encoding="UTF-8"?>
<mxfile host="app.diagrams.net">
  <diagram name="Page-1" id="1">
    <mxGraphModel dx="1072" dy="524" grid="1" gridSize="10" guides="1" tooltips="1" connect="1" arrows="1" fold="1" page="1" pageScale="1" pageWidth="827" pageHeight="1169" math="0" shadow="0">
      <root>
        <mxCell id="0" parent="1" />
        <mxCell id="1" value="Hello, Draw.io!" style="text;html=1;strokeColor=none;fillColor=none;" vertex="1" parent="0">
          <mxGeometry x="100" y="100" width="120" height="40" as="geometry" />
        </mxCell>
        <mxCell id="2" style="rounded=1;whiteSpace=wrap;html=1;" vertex="1" parent="0">
          <mxGeometry x="100" y="200" width="120" height="80" as="geometry" />
        </mxCell>
      </root>
    </mxGraphModel>
  </diagram>
</mxfile>
